<?xml version="1.0" standalone="no"?>
<!DOCTYPE svg PUBLIC "-//W3C//DTD SVG 20010904//EN"
 "http://www.w3.org/TR/2001/REC-SVG-20010904/DTD/svg10.dtd">
<svg version="1.0" xmlns="http://www.w3.org/2000/svg"
 width="16.000000pt" height="16.000000pt" viewBox="0 0 16.000000 16.000000"
 preserveAspectRatio="xMidYMid meet">
<metadata>
Created by potrace 1.11, written by Peter Selinger 2001-2013
</metadata>
<g transform="translate(0.000000,16.000000) scale(0.006154,-0.006154)"
fill="#000000" stroke="none">
<path d="M1866 2434 c-9 -8 -16 -24 -16 -34 0 -26 29 -53 49 -44 133 54 201
-8 192 -180 -3 -78 -157 -155 -284 -142 -60 7 -63 6 -91 -23 -17 -17 -34 -31
-39 -31 -5 0 -33 -16 -63 -36 -99 -66 -172 -178 -279 -429 -164 -384 -285
-521 -500 -565 -82 -17 -153 -7 -298 40 -68 22 -140 40 -159 40 -70 0 -109
-62 -77 -123 41 -79 207 -240 303 -296 106 -61 290 -115 453 -133 302 -34 594
73 823 302 222 223 391 590 378 826 -2 41 2 68 10 76 14 14 16 54 3 63 -15 9
-79 149 -86 189 -4 19 -8 106 -9 193 -1 154 -2 159 -29 209 -46 82 -104 114
-208 114 -39 0 -63 -5 -73 -16z"/>
</g>
</svg>
