<?xml version="1.0" standalone="no"?>
<!DOCTYPE svg PUBLIC "-//W3C//DTD SVG 20010904//EN"
 "http://www.w3.org/TR/2001/REC-SVG-20010904/DTD/svg10.dtd">
<svg version="1.0" xmlns="http://www.w3.org/2000/svg"
 width="16.000000pt" height="16.000000pt" viewBox="0 0 16.000000 16.000000"
 preserveAspectRatio="xMidYMid meet">
<metadata>
Created by potrace 1.11, written by Peter Selinger 2001-2013
</metadata>
<g transform="translate(0.000000,16.000000) scale(0.006154,-0.006154)"
fill="#000000" stroke="none">
<path d="M1866 2418 c-14 -19 -14 -24 -1 -38 12 -14 24 -15 79 -7 55 9 69 8
91 -7 41 -27 68 -98 63 -163 -6 -70 -29 -100 -110 -142 -58 -29 -76 -34 -155
-36 -87 -3 -89 -3 -158 -50 -140 -94 -186 -150 -277 -343 -234 -494 -289 -575
-448 -651 -73 -35 -78 -36 -190 -35 -105 1 -125 4 -228 37 -135 45 -184 49
-214 19 -33 -33 -27 -73 21 -136 171 -227 391 -344 714 -378 245 -26 485 35
675 173 206 150 383 395 473 656 30 86 37 128 44 238 3 55 11 110 17 123 10
18 7 32 -11 75 -78 175 -74 159 -80 352 -5 147 -10 186 -25 215 -43 83 -91
112 -193 116 -65 3 -74 1 -87 -18z"/>
</g>
</svg>
