<svg width="255" height="255" xmlns="http://www.w3.org/2000/svg">

 <g>
  <title>background</title>
  <rect fill="none" id="canvas_background" height="402" width="582" y="-1" x="-1"/>
 </g>
 <g>
  <title>Layer 1</title>
  <path stroke="null" id="svg_1" fill="#ffffff" d="m127.500002,108.105156c-9.296527,0 -16.859493,7.945128 -16.859493,17.709553s7.563761,17.709553 16.859493,17.709553c9.296527,0 16.859493,-7.945128 16.859493,-17.709553s-7.562966,-17.709553 -16.859493,-17.709553zm0,22.896095c-2.72235,0 -4.936793,-2.326931 -4.936793,-5.185707s2.215238,-5.185707 4.936793,-5.185707c2.72235,0 4.936793,2.326931 4.936793,5.185707s-2.214443,5.185707 -4.936793,5.185707zm53.136296,-32.923521c0.450678,-1.613906 0.875126,-3.213619 1.240756,-4.782439c4.40822,-18.870931 2.043551,-32.712286 -6.659226,-38.974209c-3.076057,-2.213381 -6.733146,-3.335518 -10.868734,-3.335518c-10.291675,0 -23.43208,7.352333 -36.849887,19.878683c-13.417807,-12.526351 -26.558212,-19.878683 -36.849887,-19.878683c-4.135587,0 -7.792677,1.122137 -10.868734,3.335518c-8.702776,6.261923 -11.067445,20.103278 -6.658431,38.974209c0.366424,1.56882 0.790078,3.168533 1.241551,4.783274c-1.522131,0.520992 -3.018033,1.057848 -4.456705,1.62643c-17.31335,6.843029 -26.848331,16.714325 -26.848331,27.794589c0,11.081099 9.534981,20.952394 26.848331,27.796259c1.439467,0.568583 2.934574,1.106273 4.456705,1.62643c-0.450678,1.613906 -0.875126,3.213619 -1.240756,4.782439c-4.409015,18.870931 -2.044346,32.712286 6.659226,38.975044c3.076057,2.212546 6.732351,3.334683 10.867939,3.334683c0.000795,0 0,0 0.000795,0c10.29088,0 23.43208,-7.351498 36.849092,-19.877848c13.417807,12.526351 26.558212,19.877848 36.849887,19.877848c4.135587,0 7.791882,-1.122137 10.868734,-3.335518c8.702776,-6.262758 11.067445,-20.104112 6.658431,-38.974209c-0.366424,-1.56882 -0.790078,-3.168533 -1.240756,-4.782439c1.521337,-0.520992 3.017238,-1.057848 4.456705,-1.62643c17.31335,-6.843864 26.848331,-16.71516 26.848331,-27.796259s-9.534981,-20.952394 -26.848331,-27.795424c-1.439467,-0.569418 -2.934574,-1.106273 -4.456705,-1.62643zm-16.286409,-34.569155c1.709715,0 3.060955,0.374046 4.130818,1.143845c4.456705,3.206939 5.170478,14.32394 0.718541,30.130704c-7.272847,-1.729961 -15.156137,-2.982345 -23.399491,-3.735446c-3.182566,-4.07359 -6.417592,-7.898372 -9.66931,-11.44763c11.510175,-10.574301 21.776415,-16.091472 28.219442,-16.091472zm-7.56694,85.058622c1.760585,-2.700141 3.443276,-5.417816 5.061584,-8.143005c1.236781,2.726859 2.352746,5.377739 3.356638,7.950137c-2.990213,0.675453 -6.153703,1.277432 -9.481726,1.796754c0.353707,-0.533516 0.710593,-1.063692 1.063505,-1.603887zm-1.035685,-43.695699c3.247744,0.511808 6.396131,1.116292 9.432446,1.805104c-0.998327,2.555699 -2.107139,5.189882 -3.335972,7.897537c-1.617513,-2.725189 -3.300998,-5.443698 -5.061584,-8.143005c-0.342579,-0.525167 -0.689927,-1.039479 -1.03489,-1.559636zm-0.393449,22.628085c-2.496613,4.536972 -5.2905,9.210871 -8.407093,13.990806c-2.387719,3.661973 -4.807233,7.122729 -7.237079,10.400637c-3.910646,0.239623 -7.98344,0.367366 -12.210435,0.367366c-4.2262,0 -8.298199,-0.127743 -12.20964,-0.367366c-2.429051,-3.277908 -4.84936,-6.738664 -7.236284,-10.400637c-3.116594,-4.779935 -5.911275,-9.453834 -8.407093,-13.990806c2.496613,-4.536972 5.2905,-9.210871 8.407888,-13.990806c2.387719,-3.661973 4.807233,-7.122729 7.236284,-10.400637c3.910646,-0.239623 7.98344,-0.367366 12.20964,-0.367366c4.141151,0 8.222689,0.136092 12.225537,0.388239c2.424282,3.272063 4.838232,6.725305 7.221182,10.379764c3.116594,4.779935 5.91048,9.453834 8.407093,13.990806zm-68.834518,-62.846329c1.069864,-0.769799 2.421103,-1.143845 4.130818,-1.143845c6.442232,0 16.708472,5.516337 28.218647,16.090637c-3.251718,3.549258 -6.485949,7.374875 -9.668515,11.44763c-8.24256,0.753101 -16.126644,2.00632 -23.399491,3.736281c-4.451936,-15.806763 -3.738164,-26.924599 0.718541,-30.130704zm11.698553,41.778715c-1.760585,2.699306 -3.444071,5.417816 -5.061584,8.143005c-1.237576,-2.726859 -2.353541,-5.377739 -3.356638,-7.950137c2.990213,-0.674618 6.153703,-1.277432 9.481726,-1.796754c-0.354502,0.534351 -0.711388,1.063692 -1.063505,1.603887zm1.063505,43.739115c-3.328023,-0.519322 -6.491513,-1.121302 -9.481726,-1.79592c1.003097,-2.572398 2.119856,-5.223279 3.356638,-7.950137c1.618308,2.725189 3.300998,5.443698 5.061584,8.143005c0.351322,0.53936 0.709003,1.069536 1.063505,1.603052zm-21.041976,-5.021227c-14.9304,-5.074662 -23.258009,-11.975302 -23.258009,-17.650274c0,-5.674972 8.327609,-12.575611 23.258804,-17.650274c2.17629,5.759299 4.798489,11.680574 7.811753,17.650274c-3.014059,5.9697 -5.636258,11.890974 -7.812548,17.650274zm12.410736,46.3399c-1.71051,0 -3.061749,-0.374046 -4.130818,-1.143845c-4.456705,-3.206939 -5.170478,-14.32394 -0.719336,-30.130704c7.273642,1.729961 15.156931,2.98318 23.400286,3.736281c3.182566,4.07359 6.416797,7.898372 9.668515,11.44763c-11.510175,10.575136 -21.77562,16.091472 -28.218647,16.090637zm77.831387,-1.143845c-1.069864,0.769799 -2.421103,1.143845 -4.131613,1.143845c-6.442232,0 -16.708472,-5.516337 -28.218647,-16.090637c3.250923,-3.549258 6.485949,-7.374041 9.668515,-11.44763c8.243355,-0.753101 16.126644,-2.005485 23.400286,-3.736281c4.451141,15.806763 3.738164,26.923764 -0.718541,30.130704zm31.537132,-62.846329c0,5.674972 -8.327609,12.574776 -23.258009,17.650274c-2.17629,-5.759299 -4.798489,-11.680574 -7.811753,-17.650274c3.002136,-5.947992 5.615592,-11.847558 7.787113,-17.587654c1.422776,0.484255 2.818526,0.983539 4.158638,1.513716c11.79632,4.66221 19.124011,10.822273 19.124011,16.073939z"/>
  <g id="svg_2"/>
  <g id="svg_3"/>
  <g id="svg_4"/>
  <g id="svg_5"/>
  <g id="svg_6"/>
  <g id="svg_7"/>
  <g id="svg_8"/>
  <g id="svg_9"/>
  <g id="svg_10"/>
  <g id="svg_11"/>
  <g id="svg_12"/>
  <g id="svg_13"/>
  <g id="svg_14"/>
  <g id="svg_15"/>
  <g id="svg_16"/>
 </g>
</svg>